<svg xmlns="http://www.w3.org/2000/svg" width="44" height="39" viewBox="0 0 44 39"><defs><style>.a{fill:#fff;}</style></defs><rect width="44" height="39" rx="2"/><path class="a" d="M3.482,18.673a9.95,9.95,0,0,1-1.392-1.686A11.7,11.7,0,0,1,.618,14.026,10.967,10.967,0,0,1,0,10.5,6.5,6.5,0,0,1,.836,7.127a4.942,4.942,0,0,1,1.75-1.793,4.672,4.672,0,0,1,2.366-.676,5.507,5.507,0,0,1,1.831.432,5.828,5.828,0,0,0,1.451.432,8.6,8.6,0,0,0,1.61-.509,5.27,5.27,0,0,1,2.188-.394,4.632,4.632,0,0,1,3.639,1.94,4.108,4.108,0,0,0-2.147,3.724,4.131,4.131,0,0,0,1.332,3.095,4.371,4.371,0,0,0,1.331.884c-.107.314-.219.613-.339.9a10.628,10.628,0,0,1-1.033,1.881,9.552,9.552,0,0,1-1.331,1.628,2.568,2.568,0,0,1-1.711.763,4.233,4.233,0,0,1-1.58-.382,4.5,4.5,0,0,0-1.7-.381,4.648,4.648,0,0,0-1.749.381,4.668,4.668,0,0,1-1.512.4l-.077,0A2.465,2.465,0,0,1,3.482,18.673ZM8.115,4.6a3.023,3.023,0,0,1-.023-.369A4.294,4.294,0,0,1,9.208,1.478,4.3,4.3,0,0,1,10.566.446,4.022,4.022,0,0,1,12.12,0a3.553,3.553,0,0,1,.02.389,4.179,4.179,0,0,1-1.051,2.723,3.668,3.668,0,0,1-2.745,1.5Q8.23,4.608,8.115,4.6Z" transform="translate(12.842 9.326)"/></svg>